<svg xmlns="http://www.w3.org/2000/svg" width="124.13" height="41.689" viewBox="0 0 124.13 41.689">
    <defs>
        <linearGradient id="linear-gradient" x1=".223" x2="1" y1="-.137" y2="1" gradientUnits="objectBoundingBox">
            <stop offset="0" stop-color="#fff"/>
            <stop offset=".35" stop-color="#fff"/>
            <stop offset="1" stop-color="#229eff"/>
        </linearGradient>
    </defs>
    <g id="Group_350" transform="translate(-134 -405)">
        <g id="Group_26" transform="translate(-28.991 15.001)">
            <path id="Path_4" fill="#fff" d="M212.942 291.5c.272-.638.5-1.191.742-1.74 1.238-2.864 2.484-5.727 3.7-8.6a1.109 1.109 0 0 0 .01-.779q-4.272-10.178-8.576-20.342c-.077-.182-.143-.368-.24-.617h.516c1.818 0 3.636.013 5.454-.011a.585.585 0 0 1 .659.47q2.5 6.847 5.017 13.685c.052.141.113.279.2.507.11-.224.187-.366.251-.514q2.961-6.838 5.91-13.682a.656.656 0 0 1 .723-.465c1.724.02 3.449.009 5.173.009h.576c-.239.567-.445 1.062-.658 1.556q-6.469 14.962-12.929 29.929a.836.836 0 0 1-.921.6c-1.677-.033-3.356-.013-5.034-.013z" transform="translate(3.548 140.17)"/>
            <path id="Path_5" fill="#fff" d="M138.788 265.739a6.533 6.533 0 0 0-9.227.472c-.052.058-.1.117-.154.177a6.469 6.469 0 0 0 9.415 8.834l3.611 4.75a11.008 11.008 0 0 1-2.949 1.888 12.448 12.448 0 1 1 2.344-21.333c.218.161.314.284.128.559-1.007 1.474-1.994 2.964-2.991 4.446a2.193 2.193 0 0 1-.177.207z" transform="translate(41.055 140.751)"/>
            <path id="Path_6" fill="#fff" d="M195.321 273.413c.019.167.041.272.042.378 0 1.584.009 3.169-.011 4.754a.551.551 0 0 1-.273.429 14.234 14.234 0 0 1-5.387.561 5.058 5.058 0 0 1-4.336-3.722 11.8 11.8 0 0 1-.624-3.847c-.025-3.2-.014-6.4-.018-9.6v-.618h-3.062v-5.47c.263 0 .521.005.779 0a2.557 2.557 0 0 0 2.648-2.463v-.1c.04-.8.007-1.609.007-2.45h5.6v4.625h4.64c.016.183.039.316.04.45 0 1.631-.014 3.263.012 4.894.007.433-.152.515-.541.51-1.211-.022-2.424 0-3.635-.015-.366-.006-.515.073-.51.482.017 3.029.007 6.059.012 9.089a7.258 7.258 0 0 0 .07.928 1.665 1.665 0 0 0 1.686 1.645.945.945 0 0 0 .157-.009 16.2 16.2 0 0 0 2.068-.3c.19-.029.382-.09.636-.151z" transform="translate(15.206 143.694)"/>
            <path id="Path_7" fill="#fff" d="M164.581 282.746v-23.254h5.919v23.254z" transform="translate(22.597 140.132)"/>
            <path id="Path_8" fill="#fff" d="M167.218 249.285a3.383 3.383 0 1 1 3.4-3.357 3.383 3.383 0 0 1-3.4 3.357z" transform="translate(22.908 147.48)"/>
            <g id="Group_20" transform="translate(262.225 399.076)">
                <path id="Union_5" fill="#fff" d="M3.651 21.236a12.378 12.378 0 0 1-1.939-2.5l-.335-.436.111.035q-.222-.412-.416-.846A12.393 12.393 0 0 1 4.966 2.507a11.03 11.03 0 0 1 2.388-1.425A12.431 12.431 0 0 1 11.743.019l.116-.005c.154-.008.308-.013.463-.014h.3l.262.006c.155 0 .311.014.466.025l.076.006a12.23 12.23 0 0 1 6.458 2.423 1.1 1.1 0 0 1 .085.072 12.4 12.4 0 0 1 1.883 18.034L12.46 32.612zm8.726-15.729c-.086 0-.171 0-.257.007h-.065a6.921 6.921 0 0 0-2.446.593 6.123 6.123 0 0 0-1.331.793 6.922 6.922 0 0 0-.024 11.055c.016.013.029.026.048.04a6.982 6.982 0 0 0 2.722 1.228 6.878 6.878 0 0 0 .876.122h.042c.087.006.173.011.26.014h.314c.085 0 .171 0 .258-.007h.064a6.924 6.924 0 0 0 2.446-.593 6.111 6.111 0 0 0 1.331-.8 6.922 6.922 0 0 0 .023-11.055c-.015-.013-.029-.026-.047-.04a6.975 6.975 0 0 0-2.722-1.214 6.9 6.9 0 0 0-.876-.122h-.042c-.086-.006-.173-.011-.26-.013h-.314z" class="cls-1"/>
            </g>
            <g id="Group_21" transform="translate(242.377 399.076)">
                <path id="Union_4" fill="url(#linear-gradient)" d="M1.073 17.492A12.448 12.448 0 0 1 19.885 2.459c.218.161.314.283.128.559C19 4.5 18.017 5.987 17.02 7.469a2.071 2.071 0 0 1-.177.206 6.532 6.532 0 0 0-9.226.473c-.053.058-.1.117-.155.177a6.469 6.469 0 0 0 9.354 8.89h-3.38v-4.774h11.793v11.793h-4.773v-2.3A11.014 11.014 0 0 1 17.54 23.8a12.458 12.458 0 0 1-16.467-6.308z"/>
            </g>
        </g>
    </g>
</svg>
